<?xml version="1.0" standalone="no"?>
<!DOCTYPE svg PUBLIC "-//W3C//DTD SVG 20010904//EN"
 "http://www.w3.org/TR/2001/REC-SVG-20010904/DTD/svg10.dtd">
<svg version="1.0" xmlns="http://www.w3.org/2000/svg"
 width="1024.000000pt" height="1024.000000pt" viewBox="0 0 1024.000000 1024.000000"
 preserveAspectRatio="xMidYMid meet">

<g transform="translate(0.000000,1024.000000) scale(0.100000,-0.100000)"
fill="#000000" stroke="none">
<path d="M5020 7785 c-114 -16 -306 -62 -450 -109 -653 -211 -1236 -703 -1572
-1326 -208 -385 -311 -798 -310 -1240 1 -340 68 -662 197 -933 14 -30 34 -62
45 -72 21 -19 23 -18 105 23 59 29 85 47 85 59 0 10 -22 71 -49 135 -67 156
-105 285 -136 451 -43 236 -33 560 25 848 38 185 138 468 213 604 22 39 55 99
75 135 39 71 44 79 149 220 258 349 731 703 1140 853 148 55 368 112 483 127
165 20 415 23 557 6 424 -51 857 -209 1145 -419 83 -61 127 -69 178 -35 19 13
41 37 49 52 28 59 -23 116 -209 231 -342 213 -700 340 -1105 390 -147 18 -481
18 -615 0z m1865 -585 c3 -5 -1 -10 -10 -10 -9 0 -13 5 -10 10 3 6 8 10 10 10
2 0 7 -4 10 -10z m-4055 -2715 c0 -8 -4 -15 -10 -15 -5 0 -10 7 -10 15 0 8 5
15 10 15 6 0 10 -7 10 -15z"/>
<path d="M7893 7080 c-35 -5 -113 -23 -175 -41 -334 -94 -618 -267 -990 -605
-169 -154 -668 -685 -838 -893 -19 -23 -44 -43 -55 -44 -20 -2 -20 4 -20 593
0 327 4 657 8 733 10 160 12 158 -91 106 -69 -34 -145 -98 -185 -156 l-27 -39
-1 -1624 c0 -894 0 -1628 0 -1633 5 -38 231 177 271 258 l24 50 -3 483 c-2
310 2 554 10 682 15 236 15 237 106 134 194 -221 259 -293 465 -516 272 -293
539 -548 675 -645 99 -71 261 -166 350 -204 26 -11 98 -32 158 -46 91 -22 134
-26 250 -26 177 0 258 17 392 83 153 75 253 179 253 262 0 30 -50 78 -82 78
-12 0 -53 -31 -97 -74 -86 -83 -126 -107 -237 -137 -99 -27 -253 -22 -353 10
-75 25 -209 91 -260 129 -228 169 -572 506 -978 957 -148 165 -308 336 -355
381 l-86 81 31 58 c39 72 216 264 491 532 274 268 453 418 691 578 284 191
526 283 829 315 114 12 136 18 174 53 45 42 17 96 -61 116 -62 15 -213 21
-284 11z"/>
<path d="M4390 6946 c-240 -56 -413 -193 -511 -401 -45 -98 -59 -161 -59 -271
0 -108 12 -157 65 -269 83 -174 146 -233 494 -463 194 -127 252 -171 332 -251
53 -53 108 -117 123 -143 94 -162 108 -383 34 -537 -61 -128 -210 -242 -374
-286 -261 -71 -668 27 -893 213 -192 160 -263 300 -265 522 0 85 4 118 23 173
41 122 153 246 260 289 47 19 74 23 171 23 l115 0 97 -49 c82 -41 101 -47 125
-39 20 7 29 17 31 37 3 22 -10 40 -70 100 -100 100 -151 119 -308 120 -166 1
-296 -39 -381 -117 -225 -207 -309 -551 -203 -836 44 -119 249 -353 357 -407
18 -9 39 -22 47 -29 28 -23 213 -117 269 -136 316 -109 550 -100 819 32 110
53 132 69 210 147 211 210 282 364 282 612 0 256 -85 431 -297 610 -53 45
-190 145 -306 222 -324 218 -435 342 -469 526 -25 134 25 284 117 354 109 84
288 102 405 43 69 -35 175 -136 206 -197 36 -70 46 -164 31 -278 -14 -107 -12
-126 9 -134 43 -16 148 76 195 171 21 42 24 62 24 168 0 116 -1 122 -34 189
-63 129 -205 239 -366 285 -62 18 -242 22 -305 7z"/>
<path d="M7573 6385 c-39 -17 -73 -68 -73 -112 0 -17 16 -61 35 -96 167 -316
267 -765 252 -1128 -11 -235 -54 -434 -156 -718 -23 -63 -40 -120 -37 -127 2
-6 39 -30 81 -53 l77 -41 19 22 c36 43 107 203 138 313 71 255 95 435 94 710
-1 345 -56 609 -210 1015 -63 165 -82 197 -129 216 -41 17 -50 17 -91 -1z
m287 -2005 c0 -5 -7 -10 -16 -10 -8 0 -12 5 -9 10 3 6 10 10 16 10 5 0 9 -4 9
-10z"/>
<path d="M7045 5546 c-17 -7 -44 -27 -61 -44 -115 -115 -67 -280 94 -322 62
-16 128 7 180 65 73 78 75 159 6 235 -64 71 -150 96 -219 66z"/>
<path d="M5145 4368 c-87 -96 -117 -143 -113 -180 4 -37 26 -53 59 -45 28 7
185 160 206 201 13 25 12 28 -16 56 -45 46 -70 40 -136 -32z"/>
<path d="M3533 4040 c-49 -9 -95 -25 -364 -125 -263 -97 -506 -309 -624 -545
-48 -96 -65 -162 -65 -254 0 -167 120 -366 288 -476 138 -91 275 -100 419 -30
100 50 193 166 193 242 0 39 -7 51 -38 67 -35 18 -70 0 -125 -64 -61 -70 -114
-95 -200 -95 -93 0 -165 29 -231 93 -75 74 -110 151 -114 252 -7 150 36 247
172 392 97 103 204 175 359 243 171 75 275 98 687 155 134 19 210 35 210 46 0
19 -101 63 -183 80 -106 23 -309 32 -384 19z"/>
<path d="M6971 3384 c-292 -264 -620 -450 -992 -562 -240 -73 -338 -86 -624
-86 -214 0 -268 3 -375 22 -401 72 -815 266 -1150 541 -79 65 -143 101 -177
101 -34 0 -83 -21 -93 -40 -6 -10 -10 -33 -10 -50 0 -90 113 -201 370 -362
233 -146 349 -207 513 -269 245 -94 450 -142 722 -170 273 -27 713 32 1020
137 260 89 584 269 772 431 115 98 222 204 239 236 20 37 10 79 -28 123 -50
56 -76 49 -187 -52z"/>
</g>
</svg>
